<svg width="398" height="201" viewBox="0 0 398 201" fill="none" xmlns="http://www.w3.org/2000/svg">
<g opacity="0.8" clip-path="url(#clip0_13481_300463)">
<rect width="398" height="240" transform="translate(-2)" fill="url(#paint0_linear_13481_300463)" fill-opacity="0.2"/>
<g filter="url(#filter0_f_13481_300463)">
<rect x="265" y="88" width="137" height="137" rx="68.5" fill="#0099F5" fill-opacity="0.2"/>
</g>
<g opacity="0.8" filter="url(#filter1_f_13481_300463)">
<path d="M374.563 173.57H372.941L372.941 174.512H374.563C374.659 174.5 374.743 174.464 374.801 174.412C375.024 174.212 375.024 173.869 374.801 173.669C374.743 173.617 374.659 173.582 374.563 173.57Z" fill="#D2E4EF" fill-opacity="0.7"/>
<path d="M371.826 174.873L372.935 174.547C373.017 174.523 373.087 174.472 373.132 174.404C373.197 174.305 373.133 174.178 373.009 174.163L365.512 173.22C365.376 173.203 365.248 173.285 365.216 173.408C365.2 173.471 365.239 173.533 365.305 173.551L370.252 174.891C370.765 175.03 371.313 175.024 371.826 174.873Z" fill="#D2E4EF" fill-opacity="0.7"/>
<path d="M374.299 174.951L373.46 174.308C373.393 174.257 373.305 174.228 373.214 174.228C373.083 174.229 372.993 174.344 373.041 174.449L375.844 180.559C375.898 180.675 376.046 180.736 376.185 180.698C376.255 180.679 376.296 180.617 376.28 180.556L375.152 176.203C375.027 175.718 374.728 175.28 374.299 174.951Z" fill="#D2E4EF" fill-opacity="0.7"/>
<path d="M373.157 173.158L372.958 174.02C372.939 174.102 372.955 174.186 373.001 174.256C373.067 174.355 373.23 174.358 373.317 174.262L377.963 169.122C378.061 169.014 378.052 168.863 377.944 168.777C377.891 168.734 377.808 168.737 377.751 168.782L374.077 171.738C373.606 172.117 373.281 172.618 373.157 173.158Z" fill="#D2E4EF" fill-opacity="0.7"/>
<path d="M373.314 173.669C373.032 173.416 372.13 173.686 372.13 174.041C372.13 174.396 373.032 174.666 373.314 174.412C373.537 174.212 373.537 173.869 373.314 173.669Z" fill="#D2E4EF" fill-opacity="0.7"/>
<path d="M374.319 185.999L372.784 186.01L373.194 174.507L373.705 174.503L374.319 185.999Z" fill="#D2E4EF" fill-opacity="0.7"/>
</g>
<g opacity="0.8" filter="url(#filter2_f_13481_300463)">
<path d="M280.572 163.214H276.646L276.646 165.546H280.572C280.807 165.517 281.01 165.428 281.15 165.299C281.689 164.804 281.689 163.956 281.15 163.461C281.01 163.332 280.807 163.244 280.572 163.214Z" fill="#D2E4EF" fill-opacity="0.7"/>
<path d="M272.83 166.776L276.63 165.634C276.83 165.573 277.001 165.447 277.109 165.278C277.267 165.033 277.109 164.72 276.808 164.682L258.667 162.349C258.335 162.306 258.02 162.509 257.944 162.815C257.905 162.969 258 163.123 258.162 163.168L271.252 166.795C271.766 166.937 272.316 166.931 272.83 166.776Z" fill="#D2E4EF" fill-opacity="0.7"/>
<path d="M280.877 167.373L277.905 165.043C277.74 164.915 277.528 164.844 277.308 164.845C276.99 164.846 276.772 165.13 276.889 165.391L283.675 180.514C283.805 180.803 284.165 180.954 284.501 180.859C284.67 180.812 284.77 180.659 284.731 180.508L281.724 168.644C281.599 168.151 281.303 167.707 280.877 167.373Z" fill="#D2E4EF" fill-opacity="0.7"/>
<path d="M277.447 160.963L276.688 164.332C276.642 164.534 276.679 164.74 276.791 164.912C276.952 165.157 277.345 165.168 277.553 164.933L288.81 152.198C289.044 151.934 289.022 151.564 288.76 151.35C288.632 151.245 288.43 151.25 288.294 151.361L278.344 159.546C277.884 159.924 277.569 160.422 277.447 160.963Z" fill="#D2E4EF" fill-opacity="0.7"/>
<path d="M277.55 163.461C276.866 162.833 274.682 163.502 274.682 164.38C274.682 165.259 276.866 165.928 277.55 165.299C278.089 164.804 278.089 163.956 277.55 163.461Z" fill="#D2E4EF" fill-opacity="0.7"/>
<path d="M279.983 193.982L276.266 194.01L277.258 165.533L278.497 165.524L279.983 193.982Z" fill="#D2E4EF" fill-opacity="0.7"/>
</g>
<g filter="url(#filter3_f_13481_300463)">
<path d="M127.466 197.22C47.77 197.22 17.2039 197.22 -2 200.467V223H396V200.467C361.113 197.22 323.665 189 289.099 189C230.847 189 197.905 197.22 127.466 197.22Z" fill="url(#paint1_linear_13481_300463)" fill-opacity="0.3"/>
</g>
<g filter="url(#filter4_f_13481_300463)">
<path d="M84.8601 190.403C24.7569 192.94 14.0338 198.343 -9.82588 209.831L-9.16876 225.4L404.3 207.948L403.098 179.473C326.415 182.709 302.915 191.626 250.583 193.835C200.843 195.935 154.808 187.451 84.8601 190.403Z" fill="url(#paint2_linear_13481_300463)" fill-opacity="0.3"/>
</g>
<path d="M333 197H325L327.667 134H330.333L333 197Z" fill="url(#paint3_linear_13481_300463)" fill-opacity="0.8"/>
<path d="M333 194H325L327.667 134H330.333L333 194Z" fill="url(#paint4_linear_13481_300463)" fill-opacity="0.3"/>
<path d="M335.059 129H327.294L327.294 134.176H335.059C335.522 134.112 335.924 133.914 336.201 133.629C337.267 132.53 337.267 130.647 336.201 129.548C335.924 129.262 335.522 129.065 335.059 129Z" fill="url(#paint5_linear_13481_300463)"/>
<path d="M324.953 141.139L331.494 134.198C331.779 133.895 331.942 133.5 331.953 133.085L331.961 132.792C331.978 132.193 331.384 131.765 330.82 131.969L293.069 145.629C292.346 145.891 291.949 146.664 292.157 147.404C292.261 147.773 292.631 148.001 293.007 147.929L323.124 142.143C323.825 142.009 324.464 141.657 324.953 141.139Z" fill="url(#paint6_linear_13481_300463)" fill-opacity="0.8"/>
<path d="M342.434 133.809L333.122 131.649C332.716 131.555 332.29 131.612 331.923 131.809L331.66 131.951C331.132 132.235 331.058 132.96 331.518 133.344L362.288 159.013C362.879 159.507 363.753 159.464 364.294 158.914C364.563 158.641 364.576 158.208 364.324 157.919L344.231 134.886C343.761 134.348 343.133 133.971 342.434 133.809Z" fill="url(#paint7_linear_13481_300463)" fill-opacity="0.8"/>
<path d="M327.313 122.433L330.084 131.522C330.205 131.919 330.468 132.258 330.822 132.474L331.083 132.633C331.594 132.945 332.259 132.644 332.363 132.055L339.337 92.738C339.472 91.9768 338.997 91.2413 338.248 91.0505C337.876 90.9556 337.492 91.162 337.366 91.5253L327.353 120.329C327.117 121.009 327.103 121.746 327.313 122.433Z" fill="url(#paint8_linear_13481_300463)" fill-opacity="0.8"/>
<path d="M333.046 128.926C331.271 127.096 325.604 129.044 325.604 131.604C325.604 134.163 331.271 136.112 333.046 134.281C334.444 132.839 334.444 130.368 333.046 128.926Z" fill="url(#paint9_linear_13481_300463)"/>
</g>
<defs>
<filter id="filter0_f_13481_300463" x="65" y="-112" width="537" height="537" filterUnits="userSpaceOnUse" color-interpolation-filters="sRGB">
<feFlood flood-opacity="0" result="BackgroundImageFix"/>
<feBlend mode="normal" in="SourceGraphic" in2="BackgroundImageFix" result="shape"/>
<feGaussianBlur stdDeviation="100" result="effect1_foregroundBlur_13481_300463"/>
</filter>
<filter id="filter1_f_13481_300463" x="361.981" y="165.515" width="19.2823" height="23.7269" filterUnits="userSpaceOnUse" color-interpolation-filters="sRGB">
<feFlood flood-opacity="0" result="BackgroundImageFix"/>
<feBlend mode="normal" in="SourceGraphic" in2="BackgroundImageFix" result="shape"/>
<feGaussianBlur stdDeviation="1.61586" result="effect1_foregroundBlur_13481_300463"/>
</filter>
<filter id="filter2_f_13481_300463" x="254.703" y="148.042" width="37.5003" height="49.1995" filterUnits="userSpaceOnUse" color-interpolation-filters="sRGB">
<feFlood flood-opacity="0" result="BackgroundImageFix"/>
<feBlend mode="normal" in="SourceGraphic" in2="BackgroundImageFix" result="shape"/>
<feGaussianBlur stdDeviation="1.61586" result="effect1_foregroundBlur_13481_300463"/>
</filter>
<filter id="filter3_f_13481_300463" x="-8" y="183" width="410" height="46" filterUnits="userSpaceOnUse" color-interpolation-filters="sRGB">
<feFlood flood-opacity="0" result="BackgroundImageFix"/>
<feBlend mode="normal" in="SourceGraphic" in2="BackgroundImageFix" result="shape"/>
<feGaussianBlur stdDeviation="3" result="effect1_foregroundBlur_13481_300463"/>
</filter>
<filter id="filter4_f_13481_300463" x="-13.8259" y="175.473" width="422.126" height="53.927" filterUnits="userSpaceOnUse" color-interpolation-filters="sRGB">
<feFlood flood-opacity="0" result="BackgroundImageFix"/>
<feBlend mode="normal" in="SourceGraphic" in2="BackgroundImageFix" result="shape"/>
<feGaussianBlur stdDeviation="2" result="effect1_foregroundBlur_13481_300463"/>
</filter>
<linearGradient id="paint0_linear_13481_300463" x1="199" y1="20.5" x2="199" y2="161" gradientUnits="userSpaceOnUse">
<stop offset="0.560177" stop-color="#F5FAFE"/>
<stop offset="1" stop-color="#F2F9FE" stop-opacity="0"/>
</linearGradient>
<linearGradient id="paint1_linear_13481_300463" x1="204.922" y1="190.667" x2="205.192" y2="223" gradientUnits="userSpaceOnUse">
<stop stop-color="#A1CEEA"/>
<stop offset="1" stop-color="#F7F5F5" stop-opacity="0"/>
</linearGradient>
<linearGradient id="paint2_linear_13481_300463" x1="258.127" y1="188.094" x2="259.076" y2="210.574" gradientUnits="userSpaceOnUse">
<stop stop-color="#C0DDEF"/>
<stop offset="1" stop-color="#DCF2FF" stop-opacity="0"/>
</linearGradient>
<linearGradient id="paint3_linear_13481_300463" x1="329" y1="175.098" x2="329" y2="194.539" gradientUnits="userSpaceOnUse">
<stop stop-color="#F7F7F7"/>
<stop offset="0.982659" stop-color="white" stop-opacity="0"/>
</linearGradient>
<linearGradient id="paint4_linear_13481_300463" x1="330.667" y1="138.186" x2="329.619" y2="134.432" gradientUnits="userSpaceOnUse">
<stop stop-color="#8AA9BA" stop-opacity="0"/>
<stop offset="1" stop-color="#5C7380"/>
</linearGradient>
<linearGradient id="paint5_linear_13481_300463" x1="328.588" y1="130.618" x2="336.353" y2="133.206" gradientUnits="userSpaceOnUse">
<stop stop-color="#D2E5F2"/>
<stop offset="1" stop-color="#B6CEDE"/>
</linearGradient>
<linearGradient id="paint6_linear_13481_300463" x1="321.211" y1="135.446" x2="324.039" y2="144.267" gradientUnits="userSpaceOnUse">
<stop stop-color="white"/>
<stop offset="1" stop-color="#CBE4F5"/>
</linearGradient>
<linearGradient id="paint7_linear_13481_300463" x1="339.35" y1="139.878" x2="345.557" y2="132.976" gradientUnits="userSpaceOnUse">
<stop stop-color="white"/>
<stop offset="1" stop-color="#CBE4F5"/>
</linearGradient>
<linearGradient id="paint8_linear_13481_300463" x1="334.139" y1="122.045" x2="325.04" y2="120.078" gradientUnits="userSpaceOnUse">
<stop stop-color="white"/>
<stop offset="1" stop-color="#CBE4F5"/>
</linearGradient>
<linearGradient id="paint9_linear_13481_300463" x1="326.877" y1="129.481" x2="333.67" y2="133.726" gradientUnits="userSpaceOnUse">
<stop stop-color="white"/>
<stop offset="1" stop-color="#D3E5F0"/>
</linearGradient>
<clipPath id="clip0_13481_300463">
<rect width="398" height="240" fill="white"/>
</clipPath>
</defs>
</svg>
